<svg width="150" height="18" viewBox="0 0 150 18" fill="none" xmlns="http://www.w3.org/2000/svg">
<path d="M0.291193 14H2.56676V12.4531H2.70099C3.06534 13.169 3.82599 14.1726 5.51349 14.1726C7.82741 14.1726 9.55966 12.3381 9.55966 9.10369C9.55966 5.83097 7.77628 4.05398 5.5071 4.05398C3.77486 4.05398 3.05256 5.09588 2.70099 5.8054H2.60511V0.909091H0.291193V14ZM2.56037 9.09091C2.56037 7.18608 3.37855 5.95241 4.8679 5.95241C6.40838 5.95241 7.20099 7.26278 7.20099 9.09091C7.20099 10.9318 6.3956 12.2741 4.8679 12.2741C3.39134 12.2741 2.56037 10.9957 2.56037 9.09091ZM12.631 17.6818C14.4336 17.6818 15.4755 16.755 16.0316 15.1889L19.9755 4.1946L17.5018 4.18182L15.2326 11.5966H15.1303L12.8675 4.18182H10.413L13.9734 14.2045L13.7752 14.7351C13.3469 15.8537 12.6694 15.9304 11.6594 15.6364L11.1225 17.4389C11.4357 17.5668 11.9982 17.6818 12.631 17.6818ZM26.1486 14H31.4476C34.4455 14 35.9157 12.4723 35.9157 10.4332C35.9157 8.4517 34.5094 7.28835 33.1159 7.21804V7.0902C34.3944 6.78977 35.4043 5.89489 35.4043 4.30327C35.4043 2.35369 33.998 0.909091 31.16 0.909091H26.1486V14ZM28.5201 12.0185V8.18324H31.1344C32.5982 8.18324 33.5059 9.07812 33.5059 10.2479C33.5059 11.2898 32.79 12.0185 31.0705 12.0185H28.5201ZM28.5201 6.47656V2.86506H30.9171C32.3105 2.86506 33.0328 3.60014 33.0328 4.61009C33.0328 5.76065 32.0996 6.47656 30.8659 6.47656H28.5201ZM37.8764 14H40.1903V8.22798C40.1903 6.98153 41.13 6.09943 42.402 6.09943C42.7919 6.09943 43.2777 6.16974 43.4759 6.23366V4.10511C43.2649 4.06676 42.9006 4.04119 42.6449 4.04119C41.5199 4.04119 40.5803 4.6804 40.2223 5.81818H40.12V4.18182H37.8764V14ZM48.9554 14.1918C51.2438 14.1918 52.8162 13.0732 53.2253 11.3665L51.0648 11.1236C50.7516 11.9545 49.9846 12.3892 48.9874 12.3892C47.4917 12.3892 46.5009 11.4048 46.4817 9.72372H53.3212V9.0142C53.3212 5.56889 51.2502 4.05398 48.834 4.05398C46.0215 4.05398 44.187 6.11861 44.187 9.14844C44.187 12.2294 45.9959 14.1918 48.9554 14.1918ZM46.4881 8.16406C46.5584 6.91122 47.4853 5.85653 48.8659 5.85653C50.1955 5.85653 51.0904 6.82812 51.1032 8.16406H46.4881ZM57.5927 8.24716C57.5927 6.82812 58.4492 6.00994 59.6701 6.00994C60.8654 6.00994 61.5813 6.79616 61.5813 8.10653V14H63.8952V7.74858C63.9016 5.39631 62.5593 4.05398 60.533 4.05398C59.0629 4.05398 58.0529 4.7571 57.6055 5.85014H57.4904V4.18182H55.2788V14H57.5927V8.24716ZM68.5614 8.24716C68.5614 6.82812 69.418 6.00994 70.6388 6.00994C71.8342 6.00994 72.5501 6.79616 72.5501 8.10653V14H74.864V7.74858C74.8704 5.39631 73.5281 4.05398 71.5018 4.05398C70.0316 4.05398 69.0217 4.7571 68.5742 5.85014H68.4592V4.18182H66.2475V14H68.5614V8.24716ZM81.4989 14.1918C84.3754 14.1918 86.2035 12.1655 86.2035 9.12926C86.2035 6.08665 84.3754 4.05398 81.4989 4.05398C78.6225 4.05398 76.7944 6.08665 76.7944 9.12926C76.7944 12.1655 78.6225 14.1918 81.4989 14.1918ZM81.5117 12.3381C79.9201 12.3381 79.1403 10.919 79.1403 9.12287C79.1403 7.3267 79.9201 5.88849 81.5117 5.88849C83.0778 5.88849 83.8576 7.3267 83.8576 9.12287C83.8576 10.919 83.0778 12.3381 81.5117 12.3381ZM103.94 5.32599C103.537 2.41761 101.3 0.730113 98.3979 0.730113C94.9782 0.730113 92.4022 3.22301 92.4022 7.45455C92.4022 11.6797 94.9462 14.179 98.3979 14.179C101.511 14.179 103.575 12.1655 103.94 9.66619L101.549 9.65341C101.249 11.1875 99.9959 12.0504 98.4299 12.0504C96.3077 12.0504 94.7864 10.4588 94.7864 7.45455C94.7864 4.50142 96.2949 2.85866 98.4363 2.85866C100.028 2.85866 101.274 3.75994 101.549 5.32599H103.94ZM107.435 14.1406C108.189 14.1406 108.835 13.5142 108.841 12.7344C108.835 11.9673 108.189 11.3409 107.435 11.3409C106.655 11.3409 106.022 11.9673 106.028 12.7344C106.022 13.5142 106.655 14.1406 107.435 14.1406ZM115.393 14H123.53V12.0121H117.764V0.909091H115.393V14ZM125.486 14H127.8V4.18182H125.486V14ZM126.649 2.78835C127.384 2.78835 127.985 2.22585 127.985 1.53551C127.985 0.838778 127.384 0.276278 126.649 0.276278C125.908 0.276278 125.307 0.838778 125.307 1.53551C125.307 2.22585 125.908 2.78835 126.649 2.78835ZM132.493 8.24716C132.493 6.82812 133.35 6.00994 134.57 6.00994C135.766 6.00994 136.482 6.79616 136.482 8.10653V14H138.796V7.74858C138.802 5.39631 137.46 4.05398 135.433 4.05398C133.963 4.05398 132.953 4.7571 132.506 5.85014H132.391V4.18182H130.179V14H132.493V8.24716ZM148.908 6.77699C148.588 5.11506 147.259 4.05398 144.958 4.05398C142.593 4.05398 140.982 5.21733 140.988 7.03267C140.982 8.46449 141.864 9.41051 143.749 9.80043L145.424 10.152C146.325 10.3501 146.747 10.7145 146.747 11.2706C146.747 11.9418 146.019 12.4467 144.919 12.4467C143.858 12.4467 143.168 11.9865 142.97 11.1044L140.713 11.3217C141.001 13.1243 142.516 14.1918 144.926 14.1918C147.38 14.1918 149.112 12.9197 149.119 11.0597C149.112 9.6598 148.211 8.80327 146.357 8.40057L144.683 8.04261C143.686 7.81889 143.289 7.47372 143.296 6.90483C143.289 6.24006 144.024 5.77983 144.99 5.77983C146.057 5.77983 146.619 6.36151 146.798 7.0071L148.908 6.77699Z" fill="white"/>
</svg>
