<svg width="361" height="76" viewBox="0 0 361 76" fill="none" xmlns="http://www.w3.org/2000/svg">
<path d="M154.522 33.5148L149.306 58.7976H135.718L140.934 33.5148C141.343 31.5275 141.106 31.1612 139.18 31.1612H134.275C132.362 31.1612 131.961 31.5275 131.556 33.4643C131.556 33.4643 131.556 33.4979 131.556 33.5148L126.34 58.7976H112.74L117.96 33.5148C118.369 31.5275 118.132 31.1612 116.202 31.1612H111.297C109.367 31.1612 108.979 31.5317 108.57 33.5148L103.35 58.7976H89.7618L97.77 19.9871H108.807L110.557 23.3217C111.563 22.2302 112.782 21.3692 114.133 20.7947C115.483 20.2202 116.937 19.945 118.398 19.9871H121.214C126.528 19.9871 130.113 22.3659 131.397 26.3867C133.772 21.9154 137.214 19.9871 141.371 19.9871H144.192C152.176 19.9871 156.235 25.2963 154.522 33.5148Z" fill="white"/>
<path d="M195.961 33.5147L193.537 45.2699C191.841 53.4884 185.586 58.7976 177.594 58.7976H167.301C159.321 58.7976 155.262 53.4842 156.959 45.2657L159.383 33.5147C161.075 25.2962 167.33 19.9871 175.326 19.9871H185.635C193.598 19.9871 197.662 25.2962 195.961 33.5147ZM182.361 33.5147C182.77 31.5275 182.532 31.1612 180.607 31.1612H175.702C173.772 31.1612 173.384 31.5317 172.975 33.5147L170.547 45.2657C170.138 47.2529 170.379 47.6192 172.305 47.6192H177.21C179.135 47.6192 179.528 47.2487 179.937 45.2657L182.361 33.5147Z" fill="white"/>
<path d="M280.764 30.4244C280.267 32.6307 279.067 34.6019 277.355 36.0241L270.434 41.9185C268.775 43.3557 266.687 44.164 264.519 44.2089H254.937L254.72 45.2488C254.312 47.2361 254.549 47.6024 256.478 47.6024H277.212L274.906 58.7807H251.458C243.479 58.7807 239.42 53.4673 241.116 45.2488L243.54 33.4979C245.237 25.2794 251.491 19.9702 259.483 19.9702H269.801C277.76 19.9871 281.876 25.0184 280.764 30.4244ZM266.53 33.5147C266.939 31.5275 266.702 31.1612 264.773 31.1612H259.867C257.946 31.157 257.537 31.5317 257.128 33.5147L256.311 37.5608H264.405C264.768 37.5454 265.116 37.4083 265.396 37.1704C265.676 36.9326 265.874 36.6069 265.958 36.243L266.53 33.5147Z" fill="white"/>
<path d="M296.041 52.2085C295.289 55.8504 292.497 58.8018 288.274 58.8018C284.051 58.8018 282.481 55.8546 283.234 52.2085C283.986 48.5624 286.778 45.6194 291.001 45.6194C295.223 45.6194 296.781 48.5624 296.041 52.2085Z" fill="#62CD0F"/>
<path d="M325.196 19.9871L322.89 31.157L317.167 58.7934H303.583L309.306 31.157H302.524L304.834 19.9829L325.196 19.9871ZM315.107 12.7412C312.752 10.0466 313.472 5.42368 316.705 2.42174C319.939 -0.580198 324.472 -0.824395 326.839 1.8744C329.206 4.5732 328.474 9.1961 325.241 12.198C322.007 15.2 317.465 15.4442 315.107 12.7412Z" fill="white"/>
<path d="M347 25.5742L342.937 45.2657C342.528 47.253 342.765 47.6193 344.691 47.6193H353.14L350.835 58.7976H339.679C331.699 58.7976 327.636 53.4842 329.333 45.2657L333.396 25.5742H328.257L330.563 14.3959H335.714L337.602 5.24268H351.203L349.314 14.3959H360.008L357.69 25.5742H347Z" fill="white"/>
<path d="M36.7338 5.69312H53.9765L39.6321 76.0008H22.3894L36.7338 5.69312Z" fill="white"/>
<path d="M62.0337 5.69312H79.2764L68.1001 60.7806H50.8533L62.0337 5.69312Z" fill="white"/>
<path d="M11.1804 5.69312H28.4231L17.2468 60.7806H0L11.1804 5.69312Z" fill="white"/>
<path d="M246.279 19.9871L221.085 58.7975H207.187L197.997 19.9871H212.881L216.883 45.472L231.395 20.0081L246.279 19.9871Z" fill="white"/>
</svg>
